<?xml version="1.0" encoding="UTF-8"?>
<svg width="717px" height="228px" viewBox="0 0 717 228" version="1.1" xmlns="http://www.w3.org/2000/svg" xmlns:xlink="http://www.w3.org/1999/xlink">
    <title>Untitled</title>
    <defs>
        <linearGradient x1="18.9065923%" y1="69.8987566%" x2="50%" y2="12.1762377%" id="linearGradient-1">
            <stop stop-color="#E18A8A" offset="0%"></stop>
            <stop stop-color="#4ADAB9" offset="39.5901418%"></stop>
            <stop stop-color="#2FE8C2" offset="49.9836485%"></stop>
            <stop stop-color="#2BEBC3" offset="63.928143%"></stop>
            <stop stop-color="#35E6C0" offset="66.26379%"></stop>
            <stop stop-color="#67CBB0" offset="81.3889124%"></stop>
            <stop stop-color="#05FFCF" offset="100%"></stop>
        </linearGradient>
        <linearGradient x1="50%" y1="58.3357429%" x2="50%" y2="100%" id="linearGradient-2">
            <stop stop-color="#E18A8A" offset="0%"></stop>
            <stop stop-color="#F76D6D" offset="100%"></stop>
        </linearGradient>
    </defs>
    <g id="Page-1" stroke="none" stroke-width="1" fill="none" fill-rule="evenodd">
        <g id="Lucidia-Logo-Final" transform="translate(4.000000, 57.000000)">
            <path d="M133,66.5 C133,103.227007 103.227007,133 66.5,133 C29.7729928,133 0,103.227007 0,66.5 C0,29.7729928 29.7729928,0 66.5,0 C103.227007,0 133,29.7729928 133,66.5" id="Fill-1" fill-opacity="0" fill="#E18A8A"></path>
            <path d="M2.94990366,84 L1.65059389,78.1435765 L1,73.4133368 L2.9220019,73.2852033 C4.49442697,73.18061 6.03090169,72.7683893 7.44396478,72.0726163 L10.3508451,70.6412126 C11.486232,70.0821332 12.5534743,69.3951878 13.5316456,68.593484 L21.2987976,62.229074 L32.2156289,51.3920289 L39.3525768,44.7018013 C39.3525768,44.7018013 43.491427,41.6445198 45.0807541,41.0396975 C45.6438867,40.8254284 46.8919539,40.7502603 47.4848662,40.8583311 C49.2740665,41.1849512 54.0753152,43.9330003 54.0753152,43.9330003 L58.3568937,45.931241 C59.8541987,46.5571959 60.8219068,46.184833 62.0173898,45.8600854 C63.1632399,45.5489805 64.2516768,45.0570441 65.2413844,44.402734 L66.4065511,43.6323279 C68.6094486,42.1760465 70.6999341,40.5573912 72.660301,38.7897374 L75.910051,35.8595193 L80.8867589,31.8279952 C81.5824248,31.4366396 82.3365772,31.2065878 83.1207775,31.0886194 C85.7049096,30.6994038 88.3137241,31.616401 90.2515548,33.3647947 C91.9879027,34.9312871 94.2747738,37.0619413 95.5094266,38.489065 L103.823614,48.098543 L112.83615,57.9324552 L119.680398,64.4974918 L126.210483,69.1621934 L133,71.7497413 L130.156167,83.0693602 L120.542401,79.9711509 L113.206653,76.3138621 L106.037243,72.4904546 L92.9564157,64.2142071 L82.5844735,59.4684523 L78.0829004,58.3048182 L72.5808883,57.2166196 L67,57.9169401 L62.577303,59.9670762 L56.4085998,63.125741 L51.573547,65.286623 L43.6059852,63.6551277 L40.5695227,63.0147277 L37.0683886,64.2893752 L33.4003805,68.8885388 L25.9532938,74.4680976 L21.2987976,78.7524113 L14.7271286,81.646784 L9.16958123,83.3130546 L2.94990366,84" id="Fill-2" fill="#E5FFFA"></path>
            <path d="M3,83.5936898 L3,83.5936898 C3,83.5936898 8.76582172,82.9948154 10.6340902,82.5069979 C12.0040647,82.1493947 15.0853035,80.8997268 16.971225,80.1131662 C18.0009793,79.6836536 18.9708206,79.125315 19.868178,78.4475902 L25.7714786,73.9897658 L33.1193774,67.2202918 C33.3863111,66.9745784 33.6377316,66.7108182 33.8720342,66.4312324 L36.4961691,63.2988723 C36.4961691,63.2988723 38.8164596,60.858119 40.5903117,61.4217328 L40.5908467,61.4217328 L43.2101672,62.4723312 C44.3017067,62.9101731 45.4371112,63.2194666 46.5952504,63.3946589 L48.5408174,63.6889597 C49.0714752,63.7691983 49.6088197,63.7914097 50.1440245,63.7547609 C52.2736099,63.6087211 54.3472944,62.9854141 56.2222496,61.9275971 L60.3525005,59.5970678 L63.8587471,57.8615259 C64.9620553,57.3154036 66.1175198,56.8908885 67.305883,56.5951995 L67.9734848,56.4291694 C69.5560968,56.0354727 71.1900628,55.9113666 72.8111903,56.0621263 L76.5145612,56.4066804 C77.3923934,56.4883072 78.2600617,56.6629442 79.1036578,56.9283702 L81.4603241,57.6693975 C82.6644679,58.0478239 83.8260843,58.5586857 84.9259154,59.1933759 L99.7961025,67.7741881 L108.979104,73.3187044 L117.407576,78.1210829 C118.036662,78.4795191 118.688216,78.7943654 119.35769,79.0634008 L130,83.3407577 L127.450221,94 L118.276047,91.8282821 L108.810331,87.2494057 L97.6443172,81.8642561 L92.4519483,79.8560695 L87.9488461,80.4285678 L80.787373,82.3348597 L76.2313119,83.6242305 L64.605787,79.2360943 L55.8365598,74.9173686 L51.7857471,74.9173686 L44.0660669,77.4233678 L31.4295104,85.1507077 L20.4015105,91.4468016 L11.5983147,93.0240874 L6.48056956,94 L3,83.5936898" id="Fill-3" fill="#ABFFEF"></path>
            <path d="M7,91.3271436 L9.61151544,91.3271436 C9.91328464,91.3271436 11.6125675,91.3117442 11.9004867,91.2201583 C11.9004867,91.2201583 19.1986137,89.1636647 21.4692072,88.1951242 C24.8376759,86.7583883 34.3525945,81.192185 34.3525945,81.192185 L44.9747105,74.9802881 C45.1369148,74.8854603 45.3073758,74.806302 45.484229,74.7441642 C45.484229,74.7441642 47.5542645,73.4568294 49.9250038,73.1045346 C52.2134424,72.7643973 54.8023185,73.3574088 54.9717141,73.4244096 L65.4414806,77.5738692 L72.3054647,80.4759784 L73.5743336,80.8736609 C74.9220407,81.2959283 76.3360678,81.4569464 77.7426372,81.3486104 C77.7426372,81.3486104 79.6049234,81.1603056 79.8795254,81.0508889 L85.4368196,78.8428328 L88.5895486,78.2692732 C89.9612268,78.0199111 91.3635347,77.9961366 92.7426705,78.1993005 L94.1481745,78.4059765 C95.5366325,78.6104912 96.8824751,79.046537 98.1305691,79.6968234 L105.718746,83.6506838 C105.718746,83.6506838 113.498692,87.609137 116.19091,88.698441 C118.83119,89.7666723 127,92.2767725 127,92.2767725 L121.650189,101.462642 L112.344351,100.700778 L102.964203,98.0158812 L93.401076,94.8979104 L85.2895306,93.5122356 L76.3243486,92.9059861 L67.8713486,92.2767725 L54.8928759,93.6854112 L34.7419913,98.6221308 L24.3252276,102 L10.6635793,102 L7,91.3271436" id="Fill-4" fill="#57FEDF"></path>
            <path d="M13,101.781304 C13,101.781304 19.9196164,102.036329 22.2077955,101.781304 C25.107457,101.458397 33.5962862,99.2121158 33.5962862,99.2121158 L50.2351829,95.0632832 C50.6177938,94.9680881 51.0030785,94.8834401 51.3905021,94.8096097 L60.4119386,93.0933923 C61.2969436,92.9251781 62.1907719,92.8069955 63.0888783,92.7393853 L72.0966787,92.0630128 C73.3316751,91.9702516 74.5722864,91.9799875 75.8056786,92.0916795 L83.2592391,92.7672407 C84.172853,92.8499956 85.0808522,92.9871091 85.9784237,93.1780403 L96.134057,95.3375102 C97.2915152,95.5836114 98.4243751,95.9084108 99.5369147,96.3138016 C102.23364,97.2960426 107.536986,99.1945371 109.753509,99.7519157 C112.764398,100.50915 122,101.781304 122,101.781304 L117.943415,107.961417 L113.433633,113 L20.4011553,113 L13,101.781304" id="Fill-5" fill="#19F4CB"></path>
            <polyline id="Fill-6" fill="#00D8AF" points="21 113 112 113 106.508875 119.346198 97.186863 125.44954 83.7270243 130.859783 71.4944101 133 52.7998498 131.734822 37.7316395 126.45995 21.2500197 114.811536 21 113"></polyline>
            <path d="M133,66.5 C133,103.227007 103.227007,133 66.5,133 C29.7729928,133 0,103.227007 0,66.5 C0,29.7729928 29.7729928,0 66.5,0 C103.227007,0 133,29.7729928 133,66.5 Z" id="Stroke-7" stroke="url(#linearGradient-1)" stroke-width="7" stroke-linecap="round" stroke-linejoin="round"></path>
        </g>
        <text id="lucidia" fill="url(#linearGradient-2)" fill-rule="nonzero" font-family="Graphik-Bold, Graphik" font-size="173" font-weight="bold">
            <tspan x="144" y="190">lucidia</tspan>
        </text>
    </g>
</svg>