<?xml version="1.0" standalone="no"?>
<!DOCTYPE svg PUBLIC "-//W3C//DTD SVG 20010904//EN"
 "http://www.w3.org/TR/2001/REC-SVG-20010904/DTD/svg10.dtd">
<svg version="1.0" xmlns="http://www.w3.org/2000/svg"
 width="2508.000000pt" height="2508.000000pt" viewBox="0 0 2508.000000 2508.000000"
 preserveAspectRatio="xMidYMid meet">
<metadata>
Created by potrace 1.11, written by Peter Selinger 2001-2013
</metadata>
<g transform="translate(0.000000,2508.000000) scale(0.100000,-0.100000)"
fill="#000000" stroke="none">
<path d="M12010 23069 c-2213 -128 -4290 -929 -6022 -2321 -493 -396 -981
-870 -1399 -1358 -1420 -1658 -2290 -3714 -2488 -5875 -58 -632 -60 -1308 -5
-1930 139 -1589 632 -3109 1453 -4480 249 -416 568 -871 872 -1245 438 -538
1018 -1117 1552 -1549 338 -273 834 -621 1192 -837 1022 -615 2157 -1059 3308
-1293 730 -149 1380 -214 2142 -214 516 0 946 27 1405 89 1440 194 2771 659
4025 1407 371 221 859 563 1212 848 537 435 1137 1035 1572 1572 1850 2288
2653 5209 2240 8146 -369 2625 -1749 5048 -3827 6719 -1530 1231 -3342 2004
-5272 2251 -205 26 -551 58 -779 71 -213 12 -968 11 -1181 -1z m1105 -539
c2324 -123 4453 -1000 6195 -2554 171 -152 609 -590 761 -761 927 -1040 1614
-2220 2044 -3510 297 -889 456 -1738 506 -2690 17 -322 6 -986 -20 -1285 -91
-1010 -276 -1839 -608 -2725 -66 -175 -208 -523 -219 -534 -7 -8 -841 258
-1179 376 -104 36 -253 93 -329 125 -380 162 -1185 554 -2051 998 -363 186
-707 361 -765 389 -198 94 -371 141 -689 186 -353 51 -479 46 -941 -37 l-284
-50 -444 -174 -445 -174 -161 -21 c-132 -17 -194 -20 -346 -16 -322 9 -448 47
-1165 345 -629 261 -2171 867 -2263 888 -288 67 -636 68 -889 3 -288 -74 -413
-137 -1543 -789 -1664 -960 -2363 -1341 -2760 -1507 -175 -73 -587 -205 -1155
-370 -315 -91 -336 -96 -466 -105 -74 -4 -211 -7 -304 -6 l-168 3 -47 111
c-278 649 -512 1450 -634 2164 -105 615 -146 1098 -146 1715 0 362 10 595 41
930 182 2002 979 3924 2266 5467 403 483 878 955 1358 1350 1181 970 2580
1661 4065 2008 566 132 1172 218 1760 249 218 12 809 12 1025 1z"/>
</g>
</svg>
